<svg width="222" height="55" viewBox="0 0 222 55" fill="none" xmlns="http://www.w3.org/2000/svg">
<g clip-path="url(#clip0_145_2)">
<path d="M8.55469 25H3.82324L3.85254 21.0449H8.55469C9.53125 21.0449 10.3564 20.8105 11.0303 20.3418C11.7139 19.873 12.2314 19.1748 12.583 18.2471C12.9443 17.3096 13.125 16.1572 13.125 14.79V13.8672C13.125 12.8418 13.0225 11.9434 12.8174 11.1719C12.6221 10.3906 12.3291 9.74121 11.9385 9.22363C11.5479 8.69629 11.0596 8.30078 10.4736 8.03711C9.89746 7.77344 9.2334 7.6416 8.48145 7.6416H3.73535V3.67188H8.48145C9.92676 3.67188 11.25 3.9209 12.4512 4.41895C13.6621 4.90723 14.707 5.61035 15.5859 6.52832C16.4746 7.43652 17.1582 8.51563 17.6367 9.76562C18.125 11.0059 18.3691 12.3828 18.3691 13.8965V14.79C18.3691 16.2939 18.125 17.6709 17.6367 18.9209C17.1582 20.1709 16.4795 21.25 15.6006 22.1582C14.7217 23.0664 13.6816 23.7695 12.4805 24.2676C11.2891 24.7559 9.98047 25 8.55469 25ZM6.76758 3.67188V25H1.62598V3.67188H6.76758ZM35.7275 21.0449V25H24.3604V21.0449H35.7275ZM26.1914 3.67188V25H21.0498V3.67188H26.1914ZM34.2627 12.1387V15.9619H24.3604V12.1387H34.2627ZM35.7715 3.67188V7.6416H24.3604V3.67188H35.7715ZM48.8232 19.3311C48.8232 18.999 48.7744 18.7012 48.6768 18.4375C48.5791 18.1641 48.3984 17.9102 48.1348 17.6758C47.8711 17.4414 47.4902 17.207 46.9922 16.9727C46.5039 16.7285 45.8594 16.4746 45.0586 16.2109C44.1211 15.8984 43.2178 15.5469 42.3486 15.1562C41.4795 14.7559 40.7031 14.292 40.0195 13.7646C39.3359 13.2275 38.7939 12.6025 38.3936 11.8896C37.9932 11.167 37.793 10.3271 37.793 9.37012C37.793 8.45215 37.998 7.62695 38.4082 6.89453C38.8184 6.15234 39.3896 5.52246 40.1221 5.00488C40.8643 4.47754 41.7334 4.07715 42.7295 3.80371C43.7256 3.52051 44.8145 3.37891 45.9961 3.37891C47.5586 3.37891 48.9355 3.65234 50.127 4.19922C51.3281 4.73633 52.2656 5.50293 52.9395 6.49902C53.623 7.48535 53.9648 8.65234 53.9648 10H48.8525C48.8525 9.46289 48.7402 8.98926 48.5156 8.5791C48.3008 8.16895 47.9736 7.84668 47.5342 7.6123C47.0947 7.37793 46.543 7.26074 45.8789 7.26074C45.2344 7.26074 44.6924 7.3584 44.2529 7.55371C43.8135 7.74902 43.4814 8.0127 43.2568 8.34473C43.0322 8.66699 42.9199 9.02344 42.9199 9.41406C42.9199 9.73633 43.0078 10.0293 43.1836 10.293C43.3691 10.5469 43.6279 10.7861 43.96 11.0107C44.3018 11.2354 44.7119 11.4502 45.1904 11.6553C45.6787 11.8604 46.2256 12.0605 46.8311 12.2559C47.9639 12.6172 48.9697 13.0225 49.8486 13.4717C50.7373 13.9111 51.4844 14.4141 52.0898 14.9805C52.7051 15.5371 53.1689 16.1719 53.4814 16.8848C53.8037 17.5977 53.9648 18.4033 53.9648 19.3018C53.9648 20.2588 53.7793 21.1084 53.4082 21.8506C53.0371 22.5928 52.5049 23.2227 51.8115 23.7402C51.1182 24.248 50.2881 24.6338 49.3213 24.8975C48.3545 25.1611 47.2754 25.293 46.084 25.293C44.9902 25.293 43.9111 25.1562 42.8467 24.8828C41.792 24.5996 40.835 24.1699 39.9756 23.5938C39.1162 23.0078 38.4277 22.2607 37.9102 21.3525C37.4023 20.4346 37.1484 19.3457 37.1484 18.0859H42.3047C42.3047 18.7109 42.3877 19.2383 42.5537 19.668C42.7197 20.0977 42.9639 20.4443 43.2861 20.708C43.6084 20.9619 44.0039 21.1475 44.4727 21.2646C44.9414 21.3721 45.4785 21.4258 46.084 21.4258C46.7383 21.4258 47.2656 21.333 47.666 21.1475C48.0664 20.9521 48.3594 20.6982 48.5449 20.3857C48.7305 20.0635 48.8232 19.7119 48.8232 19.3311ZM62.0801 3.67188V25H56.9531V3.67188H62.0801ZM83.1445 13.6035V22.3633C82.7832 22.7637 82.2266 23.1934 81.4746 23.6523C80.7324 24.1016 79.7949 24.4873 78.6621 24.8096C77.5293 25.1318 76.1963 25.293 74.6631 25.293C73.2471 25.293 71.9629 25.0684 70.8105 24.6191C69.6582 24.1602 68.667 23.4912 67.8369 22.6123C67.0166 21.7236 66.3818 20.6396 65.9326 19.3604C65.4932 18.0713 65.2734 16.5967 65.2734 14.9365V13.75C65.2734 12.0898 65.498 10.6152 65.9473 9.32617C66.3965 8.03711 67.0264 6.95312 67.8369 6.07422C68.6572 5.18555 69.6191 4.51172 70.7227 4.05273C71.8359 3.59375 73.0566 3.36426 74.3848 3.36426C76.3477 3.36426 77.9443 3.67676 79.1748 4.30176C80.4053 4.91699 81.3379 5.77148 81.9727 6.86523C82.6074 7.94922 82.9932 9.2041 83.1299 10.6299H78.1934C78.0957 9.92676 77.9102 9.33105 77.6367 8.84277C77.373 8.34473 76.9922 7.96875 76.4941 7.71484C75.9961 7.45117 75.3516 7.31934 74.5605 7.31934C73.9453 7.31934 73.3838 7.45117 72.876 7.71484C72.3779 7.97852 71.9531 8.37891 71.6016 8.91602C71.25 9.44336 70.9766 10.1074 70.7812 10.9082C70.5957 11.709 70.5029 12.6465 70.5029 13.7207V14.9365C70.5029 16.001 70.5908 16.9336 70.7666 17.7344C70.9521 18.5352 71.2256 19.2041 71.5869 19.7412C71.958 20.2686 72.4268 20.6689 72.9932 20.9424C73.5693 21.2061 74.248 21.3379 75.0293 21.3379C75.5762 21.3379 76.0449 21.2939 76.4355 21.2061C76.8262 21.1084 77.1484 20.9912 77.4023 20.8545C77.666 20.708 77.8662 20.5713 78.0029 20.4443V17.1338H74.4287V13.6035H83.1445ZM103.96 3.67188V25H98.833L91.2891 11.7285V25H86.1475V3.67188H91.2891L98.833 16.9434V3.67188H103.96Z" fill="white"/>
</g>
<defs>
<clipPath id="clip0_145_2">
<rect width="222" height="55" fill="white"/>
</clipPath>
</defs>
</svg>
