<svg width="222" height="55" viewBox="0 0 222 55" fill="none" xmlns="http://www.w3.org/2000/svg">
<path d="M65.5547 39H60.8232L60.8525 35.0449H65.5547C66.5312 35.0449 67.3564 34.8105 68.0303 34.3418C68.7139 33.873 69.2314 33.1748 69.583 32.2471C69.9443 31.3096 70.125 30.1572 70.125 28.79V27.8672C70.125 26.8418 70.0225 25.9434 69.8174 25.1719C69.6221 24.3906 69.3291 23.7412 68.9385 23.2236C68.5479 22.6963 68.0596 22.3008 67.4736 22.0371C66.8975 21.7734 66.2334 21.6416 65.4814 21.6416H60.7354V17.6719H65.4814C66.9268 17.6719 68.25 17.9209 69.4512 18.4189C70.6621 18.9072 71.707 19.6104 72.5859 20.5283C73.4746 21.4365 74.1582 22.5156 74.6367 23.7656C75.125 25.0059 75.3691 26.3828 75.3691 27.8965V28.79C75.3691 30.2939 75.125 31.6709 74.6367 32.9209C74.1582 34.1709 73.4795 35.25 72.6006 36.1582C71.7217 37.0664 70.6816 37.7695 69.4805 38.2676C68.2891 38.7559 66.9805 39 65.5547 39ZM63.7676 17.6719V39H58.626V17.6719H63.7676ZM92.7275 35.0449V39H81.3604V35.0449H92.7275ZM83.1914 17.6719V39H78.0498V17.6719H83.1914ZM91.2627 26.1387V29.9619H81.3604V26.1387H91.2627ZM92.7715 17.6719V21.6416H81.3604V17.6719H92.7715ZM105.823 33.3311C105.823 32.999 105.774 32.7012 105.677 32.4375C105.579 32.1641 105.398 31.9102 105.135 31.6758C104.871 31.4414 104.49 31.207 103.992 30.9727C103.504 30.7285 102.859 30.4746 102.059 30.2109C101.121 29.8984 100.218 29.5469 99.3486 29.1562C98.4795 28.7559 97.7031 28.292 97.0195 27.7646C96.3359 27.2275 95.7939 26.6025 95.3936 25.8896C94.9932 25.167 94.793 24.3271 94.793 23.3701C94.793 22.4521 94.998 21.627 95.4082 20.8945C95.8184 20.1523 96.3896 19.5225 97.1221 19.0049C97.8643 18.4775 98.7334 18.0771 99.7295 17.8037C100.726 17.5205 101.814 17.3789 102.996 17.3789C104.559 17.3789 105.936 17.6523 107.127 18.1992C108.328 18.7363 109.266 19.5029 109.939 20.499C110.623 21.4854 110.965 22.6523 110.965 24H105.853C105.853 23.4629 105.74 22.9893 105.516 22.5791C105.301 22.1689 104.974 21.8467 104.534 21.6123C104.095 21.3779 103.543 21.2607 102.879 21.2607C102.234 21.2607 101.692 21.3584 101.253 21.5537C100.813 21.749 100.481 22.0127 100.257 22.3447C100.032 22.667 99.9199 23.0234 99.9199 23.4141C99.9199 23.7363 100.008 24.0293 100.184 24.293C100.369 24.5469 100.628 24.7861 100.96 25.0107C101.302 25.2354 101.712 25.4502 102.19 25.6553C102.679 25.8604 103.226 26.0605 103.831 26.2559C104.964 26.6172 105.97 27.0225 106.849 27.4717C107.737 27.9111 108.484 28.4141 109.09 28.9805C109.705 29.5371 110.169 30.1719 110.481 30.8848C110.804 31.5977 110.965 32.4033 110.965 33.3018C110.965 34.2588 110.779 35.1084 110.408 35.8506C110.037 36.5928 109.505 37.2227 108.812 37.7402C108.118 38.248 107.288 38.6338 106.321 38.8975C105.354 39.1611 104.275 39.293 103.084 39.293C101.99 39.293 100.911 39.1562 99.8467 38.8828C98.792 38.5996 97.835 38.1699 96.9756 37.5938C96.1162 37.0078 95.4277 36.2607 94.9102 35.3525C94.4023 34.4346 94.1484 33.3457 94.1484 32.0859H99.3047C99.3047 32.7109 99.3877 33.2383 99.5537 33.668C99.7197 34.0977 99.9639 34.4443 100.286 34.708C100.608 34.9619 101.004 35.1475 101.473 35.2646C101.941 35.3721 102.479 35.4258 103.084 35.4258C103.738 35.4258 104.266 35.333 104.666 35.1475C105.066 34.9521 105.359 34.6982 105.545 34.3857C105.73 34.0635 105.823 33.7119 105.823 33.3311ZM119.08 17.6719V39H113.953V17.6719H119.08ZM140.145 27.6035V36.3633C139.783 36.7637 139.227 37.1934 138.475 37.6523C137.732 38.1016 136.795 38.4873 135.662 38.8096C134.529 39.1318 133.196 39.293 131.663 39.293C130.247 39.293 128.963 39.0684 127.811 38.6191C126.658 38.1602 125.667 37.4912 124.837 36.6123C124.017 35.7236 123.382 34.6396 122.933 33.3604C122.493 32.0713 122.273 30.5967 122.273 28.9365V27.75C122.273 26.0898 122.498 24.6152 122.947 23.3262C123.396 22.0371 124.026 20.9531 124.837 20.0742C125.657 19.1855 126.619 18.5117 127.723 18.0527C128.836 17.5938 130.057 17.3643 131.385 17.3643C133.348 17.3643 134.944 17.6768 136.175 18.3018C137.405 18.917 138.338 19.7715 138.973 20.8652C139.607 21.9492 139.993 23.2041 140.13 24.6299H135.193C135.096 23.9268 134.91 23.3311 134.637 22.8428C134.373 22.3447 133.992 21.9688 133.494 21.7148C132.996 21.4512 132.352 21.3193 131.561 21.3193C130.945 21.3193 130.384 21.4512 129.876 21.7148C129.378 21.9785 128.953 22.3789 128.602 22.916C128.25 23.4434 127.977 24.1074 127.781 24.9082C127.596 25.709 127.503 26.6465 127.503 27.7207V28.9365C127.503 30.001 127.591 30.9336 127.767 31.7344C127.952 32.5352 128.226 33.2041 128.587 33.7412C128.958 34.2686 129.427 34.6689 129.993 34.9424C130.569 35.2061 131.248 35.3379 132.029 35.3379C132.576 35.3379 133.045 35.2939 133.436 35.2061C133.826 35.1084 134.148 34.9912 134.402 34.8545C134.666 34.708 134.866 34.5713 135.003 34.4443V31.1338H131.429V27.6035H140.145ZM160.96 17.6719V39H155.833L148.289 25.7285V39H143.147V17.6719H148.289L155.833 30.9434V17.6719H160.96Z" fill="white"/>
</svg>
