<svg width="222" height="55" viewBox="0 0 222 55" fill="none" xmlns="http://www.w3.org/2000/svg">
<g clip-path="url(#clip0_145_2)">
<path d="M37.2578 47H29.3721L29.4209 40.4082H37.2578C38.8854 40.4082 40.2607 40.0176 41.3838 39.2363C42.5231 38.4551 43.3857 37.2913 43.9717 35.7451C44.5739 34.1826 44.875 32.262 44.875 29.9834V28.4453C44.875 26.7363 44.7041 25.2389 44.3623 23.9531C44.0368 22.651 43.5485 21.5687 42.8975 20.7061C42.2464 19.8271 41.4326 19.168 40.4561 18.7285C39.4958 18.2891 38.389 18.0693 37.1357 18.0693H29.2256V11.4531H37.1357C39.5446 11.4531 41.75 11.8682 43.752 12.6982C45.7702 13.512 47.5117 14.6839 48.9766 16.2139C50.4577 17.7275 51.597 19.526 52.3945 21.6094C53.2083 23.6764 53.6152 25.9714 53.6152 28.4941V29.9834C53.6152 32.4899 53.2083 34.7848 52.3945 36.8682C51.597 38.9515 50.4658 40.75 49.001 42.2637C47.5361 43.7773 45.8027 44.9492 43.8008 45.7793C41.8151 46.5931 39.6341 47 37.2578 47ZM34.2793 11.4531V47H25.71V11.4531H34.2793ZM82.5459 40.4082V47H63.6006V40.4082H82.5459ZM66.6523 11.4531V47H58.083V11.4531H66.6523ZM80.1045 25.5645V31.9365H63.6006V25.5645H80.1045ZM82.6191 11.4531V18.0693H63.6006V11.4531H82.6191ZM104.372 37.5518C104.372 36.9984 104.291 36.502 104.128 36.0625C103.965 35.6068 103.664 35.1836 103.225 34.793C102.785 34.4023 102.15 34.0117 101.32 33.6211C100.507 33.2142 99.4323 32.791 98.0977 32.3516C96.5352 31.8307 95.0296 31.2448 93.5811 30.5938C92.1325 29.9264 90.8385 29.1533 89.6992 28.2744C88.5599 27.3792 87.6566 26.3376 86.9893 25.1494C86.3219 23.945 85.9883 22.5452 85.9883 20.9502C85.9883 19.4202 86.3301 18.0449 87.0137 16.8242C87.6973 15.5872 88.6494 14.5374 89.8701 13.6748C91.1071 12.7959 92.5557 12.1286 94.2158 11.6729C95.876 11.2008 97.6908 10.9648 99.6602 10.9648C102.264 10.9648 104.559 11.4206 106.545 12.332C108.547 13.2272 110.109 14.5049 111.232 16.165C112.372 17.8089 112.941 19.7539 112.941 22H104.421C104.421 21.1048 104.234 20.3154 103.859 19.6318C103.501 18.9482 102.956 18.4111 102.224 18.0205C101.491 17.6299 100.572 17.4346 99.4648 17.4346C98.3906 17.4346 97.4873 17.5973 96.7549 17.9229C96.0225 18.2484 95.4691 18.6878 95.0947 19.2412C94.7204 19.7783 94.5332 20.3724 94.5332 21.0234C94.5332 21.5605 94.6797 22.0488 94.9727 22.4883C95.2819 22.9115 95.7132 23.3102 96.2666 23.6846C96.8363 24.0589 97.5199 24.417 98.3174 24.7588C99.1312 25.1006 100.043 25.4342 101.052 25.7598C102.94 26.362 104.616 27.0374 106.081 27.7861C107.562 28.5186 108.807 29.3568 109.816 30.3008C110.842 31.2285 111.615 32.2865 112.136 33.4746C112.673 34.6628 112.941 36.0055 112.941 37.5029C112.941 39.098 112.632 40.514 112.014 41.751C111.395 42.988 110.508 44.0378 109.353 44.9004C108.197 45.7467 106.813 46.3896 105.202 46.8291C103.591 47.2686 101.792 47.4883 99.8066 47.4883C97.9837 47.4883 96.1852 47.2604 94.4111 46.8047C92.6533 46.3327 91.0583 45.6165 89.626 44.6562C88.1937 43.6797 87.0462 42.4346 86.1836 40.9209C85.3372 39.391 84.9141 37.5762 84.9141 35.4766H93.5078C93.5078 36.5182 93.6462 37.3971 93.9229 38.1133C94.1995 38.8294 94.6064 39.4072 95.1436 39.8467C95.6807 40.2699 96.3398 40.5791 97.1211 40.7744C97.9023 40.9535 98.7975 41.043 99.8066 41.043C100.897 41.043 101.776 40.8883 102.443 40.5791C103.111 40.2536 103.599 39.8304 103.908 39.3096C104.217 38.7725 104.372 38.1865 104.372 37.5518ZM126.467 11.4531V47H117.922V11.4531H126.467ZM161.574 28.0059V42.6055C160.972 43.2728 160.044 43.9889 158.791 44.7539C157.554 45.5026 155.992 46.1455 154.104 46.6826C152.215 47.2197 149.994 47.4883 147.438 47.4883C145.078 47.4883 142.938 47.1139 141.018 46.3652C139.097 45.6003 137.445 44.4854 136.062 43.0205C134.694 41.5394 133.636 39.7327 132.888 37.6006C132.155 35.4521 131.789 32.9945 131.789 30.2275V28.25C131.789 25.4831 132.163 23.0254 132.912 20.877C133.661 18.7285 134.711 16.9219 136.062 15.457C137.429 13.9759 139.032 12.8529 140.871 12.0879C142.727 11.3229 144.761 10.9404 146.975 10.9404C150.246 10.9404 152.907 11.4613 154.958 12.5029C157.009 13.5283 158.563 14.9525 159.621 16.7754C160.679 18.582 161.322 20.6735 161.55 23.0498H153.322C153.16 21.8779 152.85 20.8851 152.395 20.0713C151.955 19.2412 151.32 18.6146 150.49 18.1914C149.66 17.752 148.586 17.5322 147.268 17.5322C146.242 17.5322 145.306 17.752 144.46 18.1914C143.63 18.6309 142.922 19.2982 142.336 20.1934C141.75 21.0723 141.294 22.179 140.969 23.5137C140.66 24.8483 140.505 26.4108 140.505 28.2012V30.2275C140.505 32.0016 140.651 33.556 140.944 34.8906C141.254 36.2253 141.709 37.3402 142.312 38.2354C142.93 39.1143 143.711 39.7816 144.655 40.2373C145.616 40.6768 146.747 40.8965 148.049 40.8965C148.96 40.8965 149.742 40.8232 150.393 40.6768C151.044 40.514 151.581 40.3187 152.004 40.0908C152.443 39.8467 152.777 39.6188 153.005 39.4072V33.8896H147.048V28.0059H161.574ZM196.267 11.4531V47H187.722L175.148 24.8809V47H166.579V11.4531H175.148L187.722 33.5723V11.4531H196.267Z" fill="white"/>
</g>
<defs>
<clipPath id="clip0_145_2">
<rect width="222" height="55" fill="white"/>
</clipPath>
</defs>
</svg>
